HIERARCHY
ROOT hip
{
  OFFSET 0 0 0
  CHANNELS 6 Xposition Yposition Zposition Zrotation Yrotation Xrotation
  JOINT abdomen
  {
    OFFSET 0 20.6881 -0.73152
    CHANNELS 3 Zrotation Xrotation Yrotation
    JOINT chest
    {
      OFFSET 0 11.7043 -0.48768
      CHANNELS 3 Zrotation Xrotation Yrotation
      JOINT neck
      {
        OFFSET 0 22.1894 -2.19456
        CHANNELS 3 Zrotation Xrotation Yrotation
        JOINT head
        {
          OFFSET -0.24384 7.07133 1.2192
          CHANNELS 3 Zrotation Xrotation Yrotation
          JOINT leftEye
          {
            OFFSET 4.14528 8.04674 8.04672
            CHANNELS 3 Zrotation Xrotation Yrotation
            End Site
            {
              OFFSET 1 0 0
            }
          }
          JOINT rightEye
          {
            OFFSET -3.6576 8.04674 8.04672
            CHANNELS 3 Zrotation Xrotation Yrotation
            End Site
            {
              OFFSET 1 0 0
            }
          }
        }
      }
      JOINT rCollar
      {
        OFFSET -2.68224 19.2634 -4.8768
        CHANNELS 3 Zrotation Xrotation Yrotation
        JOINT rShldr
        {
          OFFSET -8.77824 -1.95073 1.46304
          CHANNELS 3 Zrotation Xrotation Yrotation
          JOINT rForeArm
          {
            OFFSET -28.1742 -1.7115 0.48768
            CHANNELS 3 Zrotation Xrotation Yrotation
            JOINT rHand
            {
              OFFSET -22.5879 0.773209 7.07136
              CHANNELS 3 Zrotation Xrotation Yrotation
              JOINT rThumb1
              {
                OFFSET -1.2192 -0.487915 3.41376
                CHANNELS 3 Zrotation Xrotation Yrotation
                JOINT rThumb2
                {
                  OFFSET -3.37035 -0.52449 3.41376
                  CHANNELS 3 Zrotation Xrotation Yrotation
                  End Site
                  {
                    OFFSET -1.78271 -1.18214 1.43049
                  }
                }
              }
              JOINT rIndex1
              {
                OFFSET -7.75947 0.938293 5.60832
                CHANNELS 3 Zrotation Xrotation Yrotation
                JOINT rIndex2
                {
                  OFFSET -2.54057 -0.884171 1.56538
                  CHANNELS 3 Zrotation Xrotation Yrotation
                  End Site
                  {
                    OFFSET -1.62519 -0.234802 1.16502
                  }
                }
              }
              JOINT rMid1
              {
                OFFSET -8.24714 1.18213 3.41376
                CHANNELS 3 Zrotation Xrotation Yrotation
                JOINT rMid2
                {
                  OFFSET -3.10165 -0.590103 1.0647
                  CHANNELS 3 Zrotation Xrotation Yrotation
                  End Site
                  {
                    OFFSET -2.48547 -0.328903 0.83742
                  }
                }
              }
              JOINT rRing1
              {
                OFFSET -8.82822 0.546677 1.51678
                CHANNELS 3 Zrotation Xrotation Yrotation
                JOINT rRing2
                {
                  OFFSET -2.60934 -0.819778 -0.0198488
                  CHANNELS 3 Zrotation Xrotation Yrotation
                  End Site
                  {
                    OFFSET -2.33842 -0.294052 0.168128
                  }
                }
              }
              JOINT rPinky1
              {
                OFFSET -8.27202 -0.0477905 -0.4584
                CHANNELS 3 Zrotation Xrotation Yrotation
                JOINT rPinky2
                {
                  OFFSET -1.82734 -0.647385 -0.700984
                  CHANNELS 3 Zrotation Xrotation Yrotation
                  End Site
                  {
                    OFFSET -1.69225 -0.51767 -0.607171
                  }
                }
              }
            }
          }
        }
      }
      JOINT lCollar
      {
        OFFSET 2.68224 19.2634 -4.8768
        CHANNELS 3 Zrotation Xrotation Yrotation
        JOINT lShldr
        {
          OFFSET 8.77824 -1.95073 1.46304
          CHANNELS 3 Zrotation Xrotation Yrotation
          JOINT lForeArm
          {
            OFFSET 28.1742 -1.7115 0.48768
            CHANNELS 3 Zrotation Xrotation Yrotation
            JOINT lHand
            {
              OFFSET 22.5879 0.773209 7.07136
              CHANNELS 3 Zrotation Xrotation Yrotation
              JOINT lThumb1
              {
                OFFSET 1.2192 -0.487915 3.41376
                CHANNELS 3 Zrotation Xrotation Yrotation
                JOINT lThumb2
                {
                  OFFSET 3.37035 -0.52449 3.41376
                  CHANNELS 3 Zrotation Xrotation Yrotation
                  End Site
                  {
                    OFFSET 1.78271 -1.18214 1.43049
                  }
                }
              }
              JOINT lIndex1
              {
                OFFSET 7.75947 0.938293 5.60832
                CHANNELS 3 Zrotation Xrotation Yrotation
                JOINT lIndex2
                {
                  OFFSET 2.54057 -0.884171 1.56538
                  CHANNELS 3 Zrotation Xrotation Yrotation
                  End Site
                  {
                    OFFSET 1.62519 -0.234802 1.16502
                  }
                }
              }
              JOINT lMid1
              {
                OFFSET 8.24714 1.18213 3.41376
                CHANNELS 3 Zrotation Xrotation Yrotation
                JOINT lMid2
                {
                  OFFSET 3.10165 -0.590103 1.0647
                  CHANNELS 3 Zrotation Xrotation Yrotation
                  End Site
                  {
                    OFFSET 2.48547 -0.328903 0.83742
                  }
                }
              }
              JOINT lRing1
              {
                OFFSET 8.82822 0.546677 1.51678
                CHANNELS 3 Zrotation Xrotation Yrotation
                JOINT lRing2
                {
                  OFFSET 2.60934 -0.819778 -0.0198488
                  CHANNELS 3 Zrotation Xrotation Yrotation
                  End Site
                  {
                    OFFSET 2.33842 -0.294052 0.168128
                  }
                }
              }
              JOINT lPinky1
              {
                OFFSET 8.27202 -0.0477905 -0.4584
                CHANNELS 3 Zrotation Xrotation Yrotation
                JOINT lPinky2
                {
                  OFFSET 1.82734 -0.647385 -0.700984
                  CHANNELS 3 Zrotation Xrotation Yrotation
                  End Site
                  {
                    OFFSET 1.69225 -0.51767 -0.607171
                  }
                }
              }
            }
          }
        }
      }
    }
  }
  JOINT rButtock
  {
    OFFSET -8.77824 4.35084 1.2192
    CHANNELS 3 Zrotation Xrotation Yrotation
    JOINT rThigh
    {
      OFFSET 0 -1.70687 -2.19456
      CHANNELS 3 Zrotation Xrotation Yrotation
      JOINT rShin
      {
        OFFSET 0 -36.8199 0.73152
        CHANNELS 3 Zrotation Xrotation Yrotation
        JOINT rFoot
        {
          OFFSET 0.73152 -45.1104 -5.12064
          CHANNELS 3 Zrotation Xrotation Yrotation
          End Site
          {
            OFFSET -1.1221 -3.69964 12.103
          }
        }
      }
    }
  }
  JOINT lButtock
  {
    OFFSET 8.77824 4.35084 1.2192
    CHANNELS 3 Zrotation Xrotation Yrotation
    JOINT lThigh
    {
      OFFSET 0 -1.70687 -2.19456
      CHANNELS 3 Zrotation Xrotation Yrotation
      JOINT lShin
      {
        OFFSET 0 -36.8199 0.73152
        CHANNELS 3 Zrotation Xrotation Yrotation
        JOINT lFoot
        {
          OFFSET -0.73152 -45.1104 -5.12064
          CHANNELS 3 Zrotation Xrotation Yrotation
          End Site
          {
            OFFSET 1.1221 -3.69964 12.103
          }
        }
      }
    }
  }
}
MOTION
Frames:	4
Frame Time:	0.00833333
-7.31153 85.1388 126.716 0.0 0.0 0.0 0.410561 -0.00336363 0.0117798 0.113451 -0.00539418 0.0196579 -5.51169e-15 0.0 -1.86361e-17 -1.64991e-14 3.18055e-15 -3.10601e-17 -0.0 0.0 0.0 -0.0 0.0 0.0 -2.7844e-15 3.88251e-19 9.93923e-17 -5.61072e-14 2.60905e-16 7.95139e-16 -9.93029e-13 2.98575e-13 6.36111e-15 -1.13713e-11 -2.94301e-13 -3.18055e-14 -2.68235e-11 5.71355e-15 -4.13472e-14 -4.63327e-11 9.54166e-15 -8.11041e-14 -2.68176e-11 6.36111e-15 -4.77083e-14 7.73091 5.47488 0.417314 -2.68231e-11 5.96354e-15 -4.45278e-14 2.90554 0.965183 0.102902 -2.68168e-11 6.16232e-15 -4.53229e-14 10.2786 0.731801 0.0259123 -2.68274e-11 4.77083e-15 -3.81667e-14 2.22167 -0.733487 -0.20892 -2.78175e-15 3.88251e-19 -9.93923e-17 -6.04202e-14 -3.72721e-17 -1.39149e-15 -9.9452e-13 -2.96984e-13 3.18055e-15 -1.13707e-11 2.98202e-13 -2.22639e-14 -2.68221e-11 3.5888e-15 -5.08889e-14 -4.63152e-11 0.0 -6.99722e-14 -2.68288e-11 4.77083e-15 -3.49861e-14 -7.73091 5.47488 -0.417314 -2.68229e-11 3.67752e-15 -5.40694e-14 -2.90554 0.965183 -0.102902 -2.68308e-11 3.67752e-15 -4.45278e-14 -10.2786 0.731801 -0.0259123 -2.68224e-11 5.1684e-15 -4.45278e-14 -2.22167 -0.733487 0.20892 -2.03217e-16 0.0 -3.88251e-19 0.771182 -4.17174 -0.0657014 -0.00265898 2.0054 -0.0183071 -0.462428 2.16694 0.0961813 2.03217e-16 0.0 3.88251e-19 -0.142658 -2.55999 0.0260559 0.00715902 -0.914029 0.0621351 0.453176 3.47455 -0.121139
-7.15658 83.7137 123.554 178.206 -2.0351 -152.335 -1.49484 -8.50015 -1.18732 0.994163 3.71131 -0.436747 -0.430496 3.20491 -1.02433 2.19257 -4.46367 -1.51701 -0.0 0.0 0.0 -0.0 0.0 0.0 1.02903e-14 4.06632e-14 2.17506e-14 22.9898 2.37022 -2.01614 -5.18295 -2.58495 7.83005 0.00296655 -1.20921 -0.169806 -1.58969e-10 1.82587e-10 -1.09644e-11 -2.74706e-10 3.15467e-10 -1.86973e-11 -1.58963e-10 1.82588e-10 -1.09754e-11 7.73091 5.47488 0.417314 -1.58969e-10 1.82587e-10 -1.09698e-11 2.90554 0.965183 0.102902 -1.58963e-10 1.82587e-10 -1.09686e-11 10.2786 0.731801 0.0259123 -1.58974e-10 1.82587e-10 -1.09615e-11 2.22167 -0.733487 -0.20892 1.02357e-14 4.06647e-14 2.15553e-14 -21.1199 4.72497 0.135342 3.75829 -1.62515 -5.95656 -0.000239033 0.343087 -0.0482146 -2.16349e-10 -1.60566e-10 9.61986e-11 -3.73725e-10 -2.7823e-10 1.663e-10 -2.16356e-10 -1.60565e-10 9.62126e-11 -7.73091 5.47488 -0.417314 -2.16349e-10 -1.60566e-10 9.61954e-11 -2.90554 0.965183 -0.102902 -2.16357e-10 -1.60566e-10 9.6203e-11 -10.2786 0.731801 -0.0259123 -2.16348e-10 -1.60565e-10 9.62005e-11 -2.22167 -0.733487 0.20892 -2.03217e-16 0.0 -3.88251e-19 1.16223 -12.5116 1.69152 0.00342224 4.35126 0.0422608 -0.685376 -1.64311 -0.869509 2.03217e-16 0.0 3.88251e-19 -0.872215 -9.41347 -1.96557 0.011658 0.969829 0.0498585 0.612375 1.86867 -0.561089
-7.16291 83.7132 123.539 178.169 -2.0919 -152.408 -3.913 -17.4682 -2.54413 1.99011 7.64008 -0.92505 -0.760042 6.58825 -2.12012 4.25135 -9.16534 -3.15576 -0.0 0.0 0.0 -0.0 0.0 0.0 2.48432e-14 8.69663e-14 4.69194e-14 47.4752 4.87053 -4.15768 -9.90218 -5.15739 16.1594 -0.00170857 -2.49318 -0.350369 -3.18062e-10 3.97697e-10 -2.14359e-11 -5.49689e-10 6.87157e-10 -3.65035e-11 -3.18057e-10 3.97699e-10 -2.1452e-11 7.73091 5.47488 0.417314 -3.18063e-10 3.97697e-10 -2.14439e-11 2.90554 0.965183 0.102902 -3.18058e-10 3.97697e-10 -2.14406e-11 10.2786 0.731801 0.0259123 -3.18069e-10 3.97697e-10 -2.14336e-11 2.22167 -0.733487 -0.20892 2.47242e-14 8.69696e-14 4.67299e-14 -43.4708 9.7215 0.28197 7.36776 -3.28572 -12.2715 0.000136729 0.706892 -0.0993466 -4.39604e-10 -3.58155e-10 2.09927e-10 -7.594e-10 -6.20602e-10 3.62928e-10 -4.39611e-10 -3.58154e-10 2.09938e-10 -7.73091 5.47488 -0.417314 -4.39604e-10 -3.58154e-10 2.09923e-10 -2.90554 0.965183 -0.102902 -4.39613e-10 -3.58155e-10 2.09929e-10 -10.2786 0.731801 -0.0259123 -4.39602e-10 -3.58155e-10 2.09924e-10 -2.22167 -0.733487 0.20892 -2.03217e-16 0.0 -3.88251e-19 2.1705 -21.2962 3.72862 0.00445304 6.83092 0.106823 -1.06215 -5.66706 -1.90631 2.03217e-16 0.0 3.88251e-19 -2.18161 -16.626 -4.19107 0.0173395 2.96041 0.0369295 0.753938 0.171539 -1.02565
-7.15794 83.7082 123.559 178.187 -2.0311 -152.277 -6.46897 -25.4468 -3.92796 2.93609 11.1419 -1.37269 -0.94373 9.60236 -3.11181 5.85269 -13.3529 -4.66355 -0.0 0.0 0.0 -0.0 0.0 0.0 3.64396e-14 1.21989e-13 6.50531e-14 69.4722 7.07531 -6.08979 -13.4815 -7.17677 23.6627 -0.012639 -3.62749 -0.510328 -4.23259e-10 5.47749e-10 -3.28105e-11 -7.31454e-10 9.46383e-10 -5.59297e-11 -4.23253e-10 5.47751e-10 -3.28308e-11 7.73091 5.47488 0.417314 -4.2326e-10 5.4775e-10 -3.28202e-11 2.90554 0.965183 0.102902 -4.23256e-10 5.4775e-10 -3.28152e-11 10.2786 0.731801 0.0259123 -4.23266e-10 5.4775e-10 -3.28082e-11 2.22167 -0.733487 -0.20892 3.62706e-14 1.21993e-13 6.48648e-14 -63.4285 14.1746 0.417353 10.2766 -4.66508 -17.9239 0.00101539 1.02926 -0.144665 -5.95402e-10 -4.81706e-10 2.88698e-10 -1.02854e-09 -8.34689e-10 4.99041e-10 -5.95409e-10 -4.81704e-10 2.88708e-10 -7.73091 5.47488 -0.417314 -5.95402e-10 -4.81704e-10 2.88694e-10 -2.90554 0.965183 -0.102902 -5.9541e-10 -4.81705e-10 2.88698e-10 -10.2786 0.731801 -0.0259123 -5.95398e-10 -4.81706e-10 2.88691e-10 -2.22167 -0.733487 0.20892 -2.03217e-16 0.0 -3.88251e-19 3.67185 -29.0811 5.82098 0.000541639 9.04295 0.16506 -1.5202 -9.25263 -2.83662 2.03217e-16 0.0 3.88251e-19 -3.86614 -23.0085 -6.37865 0.0230734 4.73755 0.0253864 0.856801 -1.3424 -1.44093
